C:\Users\israe\Dropbox\PhDWork\ExperimentalData\subject14\145\P14S145W05_filtered35.mot
nRows=20
nColumns=28

name C:\Users\israe\Dropbox\PhDWork\ExperimentalData\subject14\145\P14S145W05_filtered35.mot
datacolumns 28
datarows 20
range 1.0450000000 1.0640000000
endheader
time	ground_force_1_vx	ground_force_1_vy	ground_force_1_vz	ground_force_1_px	ground_force_1_py	ground_force_1_pz	ground_moment_1_mx	ground_moment_1_my	ground_moment_1_mz	ground_force_2_vx	ground_force_2_vy	ground_force_2_vz	ground_force_2_px	ground_force_2_py	ground_force_2_pz	ground_moment_2_mx	ground_moment_2_my	ground_moment_2_mz	ground_force_3_vx	ground_force_3_vy	ground_force_3_vz	ground_force_3_px	ground_force_3_py	ground_force_3_pz	ground_moment_3_mx	ground_moment_3_my	ground_moment_3_mz
        1.0450000000	       -0.0000000000	        0.0000000000	       -0.0000000000	        0.1988394961	        0.0000558755	       -0.3004071324	        0.0000000000	        0.0000000000	       -0.0000000000	       -2.5970052193	      690.7233967019	      180.2906673591	        0.2029003516	       -0.0000795827	        0.4543649445	     -115.1600676077	      -27.8355316672	       83.0758639801	      -33.8335818096	      413.1225912776	       19.3177246800	        0.2076431971	        0.0000770316	        1.3583900146	       33.3911141967	        4.5687473046	       -5.3534230221	
        1.0460000000	       -0.0000000000	        0.0000000000	       -0.0000000000	        0.1988394961	        0.0000558755	       -0.3004071324	        0.0000000000	        0.0000000000	       -0.0000000000	       -2.0493917121	      682.0833804723	      180.2517519202	        0.2029003516	       -0.0000795827	        0.4543649445	     -113.8720501752	      -27.6216345668	       81.9873665310	      -38.6314848487	      456.8339337783	       15.7531107935	        0.2076431971	        0.0000770316	        1.3583900146	       36.6640865110	        4.9529101649	       -5.8490358144	
        1.0470000000	       -0.0000000000	        0.0000000000	       -0.0000000000	        0.1988394961	        0.0000558755	       -0.3004071324	        0.0000000000	        0.0000000000	       -0.0000000000	       -1.5199853792	      673.0623620412	      180.0654542966	        0.2029003516	       -0.0000795827	        0.4543649445	     -112.5269894985	      -27.3901497850	       80.8552055861	      -43.3223226465	      498.5760116157	       10.5903240581	        0.2076431971	        0.0000770316	        1.3583900146	       39.6938571860	        5.2871241502	       -6.3068798624	
        1.0480000000	       -0.0000000000	        0.0000000000	       -0.0000000000	        0.1988394961	        0.0000558755	       -0.3004071324	        0.0000000000	        0.0000000000	       -0.0000000000	       -1.0105356768	      663.6387841264	      179.7287099927	        0.2029003516	       -0.0000795827	        0.4543649445	     -111.1207837773	      -27.1407902915	       79.6770228384	      -47.7220033187	      537.4139514532	        3.7740084982	        0.2076431971	        0.0000770316	        1.3583900146	       42.4018942969	        5.5529905264	       -6.7214578323	
        1.0490000000	       -0.0000000000	        0.0000000000	       -0.0000000000	        0.1988394961	        0.0000558755	       -0.3004071324	        0.0000000000	        0.0000000000	       -0.0000000000	       -0.5223965208	      653.7890678274	      179.2391527358	        0.2029003516	       -0.0000795827	        0.4543649445	     -109.6490943417	      -26.8732953332	       78.4511535724	      -51.6448331446	      572.5864701916	       -4.7118030581	        0.2076431971	        0.0000770316	        1.3583900146	       44.7266160997	        5.7333862951	       -7.0906752792	
        1.0500000000	       -0.0000000000	        0.0000000000	       -0.0000000000	        0.1988394961	        0.0000558755	       -0.3004071324	        0.0000000000	        0.0000000000	        0.0000000000	       -0.0574272100	      643.4934187018	      178.5941749926	        0.2029003516	       -0.0000795827	        0.4543649445	     -108.1080862092	      -26.5875479927	       77.1766180950	      -54.9249783455	      603.5633385182	      -14.8232202718	        0.2076431971	        0.0000770316	        1.3583900146	       46.6283502398	        5.8149233409	       -7.4158026565	
        1.0510000000	       -0.0000000000	        0.0000000000	        0.0000000000	        0.1988394961	        0.0000558755	       -0.3004071324	       -0.0000000000	        0.0000000000	        0.0000000000	        0.3827126122	      632.7398632910	      177.7910920085	        0.2029003516	       -0.0000795827	        0.4543649445	     -106.4952305445	      -26.2835952526	       75.8527979891	      -57.4377013240	      630.0783582839	      -26.4361654461	        0.2076431971	        0.0000770316	        1.3583900146	       48.0918536999	        5.7901476997	       -7.7010438004	
        1.0520000000	       -0.0000000000	        0.0000000000	        0.0000000000	        0.1988394961	        0.0000558755	       -0.3004071324	       -0.0000000000	       -0.0000000000	        0.0000000000	        0.7966357778	      621.5227715200	      176.8264871479	        0.2029003516	       -0.0000795827	        0.4543649445	     -104.8097564654	      -25.9614424988	       74.4791974632	      -59.1148605535	      652.1342081985	      -39.3349388844	        0.2076431971	        0.0000770316	        1.3583900146	       49.1261246315	        5.6588958318	       -7.9527293041	
        1.0530000000	        0.0000000000	        0.0000000000	        0.0000000000	        0.1988394961	        0.0000558755	       -0.3004071324	       -0.0000000000	       -0.0000000000	        0.0000000000	        1.1821329931	      609.8396532369	      175.6958439291	        0.2029003516	       -0.0000795827	        0.4543649445	     -103.0524450153	      -25.6207298420	       73.0555606832	      -59.9522440286	      669.9776937889	      -53.2173691674	        0.2076431971	        0.0000770316	        1.3583900146	       49.7615289876	        5.4284715881	       -8.1783826578	
        1.0540000000	        0.0000000000	        0.0000000000	        0.0000000000	        0.1988394961	        0.0000558755	       -0.3004071324	       -0.0000000000	       -0.0000000000	        0.0000000000	        1.5361831543	      597.6931914794	      174.3928311765	        0.2029003516	       -0.0000795827	        0.4543649445	     -101.2251056908	      -25.2608166384	       71.5821197039	      -60.0086172927	      684.0501182909	      -67.7151544152	        0.2076431971	        0.0000770316	        1.3583900146	       50.0449011187	        5.1126567185	       -8.3858572670	
        1.0550000000	        0.0000000000	        0.0000000000	        0.0000000000	        0.1988394961	        0.0000558755	       -0.3004071324	       -0.0000000000	       -0.0000000000	        0.0000000000	        1.8552197919	      585.0951889394	      172.9079878245	        0.2029003516	       -0.0000795827	        0.4543649445	      -99.3301164467	      -24.8811152019	       70.0597968534	      -59.3945846950	      694.9239181284	      -82.4234566036	        0.2076431971	        0.0000770316	        1.3583900146	       50.0337322569	        4.7298685307	       -8.5825943462	
        1.0560000000	        0.0000000000	        0.0000000000	        0.0000000000	        0.1988394961	        0.0000558755	       -0.3004071324	       -0.0000000000	       -0.0000000000	        0.0000000000	        2.1353373407	      572.0671490034	      171.2291220866	        0.2029003516	       -0.0000795827	        0.4543649445	      -97.3701628725	      -24.4810845542	       68.4902706850	      -58.2543090810	      703.2374397763	      -96.9329798619	        0.2076431971	        0.0000770316	        1.3583900146	       49.7902721425	        4.3008867290	       -8.7750625233	
        1.0570000000	        0.0000000000	        0.0000000000	        0.0000000000	        0.1988394961	        0.0000558755	       -0.3004071324	       -0.0000000000	       -0.0000000000	        0.0000000000	        2.3731213134	      558.6394714372	      169.3423551796	        0.2029003516	       -0.0000795827	        0.4543649445	      -95.3484660938	      -24.0600495648	       66.8759398820	      -56.7466855394	      709.6347201026	     -110.8562561114	        0.2076431971	        0.0000770316	        1.3583900146	       49.3761932328	        3.8465937051	       -8.9684676807	
        1.0580000000	        0.0000000000	        0.0000000000	        0.0000000000	        0.1988394961	        0.0000558755	       -0.3004071324	       -0.0000000000	       -0.0000000000	        0.0000000000	        2.5656404863	      544.8492656586	      167.2322861151	        0.2029003516	       -0.0000795827	        0.4543649445	      -93.2693857283	      -23.6170372630	       65.2200688360	      -55.0284869788	      714.7136163052	     -123.8461994547	        0.2076431971	        0.0000770316	        1.3583900146	       48.8483396013	        3.3860841122	       -9.1667231854	
        1.0590000000	        0.0000000000	        0.0000000000	        0.0000000000	        0.1988394961	        0.0000558755	       -0.3004071324	       -0.0000000000	       -0.0000000000	        0.0000000000	        2.7099794530	      530.7361005912	      164.8824108906	        0.2029003516	       -0.0000795827	        0.4543649445	      -91.1385966518	      -23.1507143568	       63.5269561732	      -53.2406756059	      718.9872447153	     -135.6104830008	        0.2076431971	        0.0000770316	        1.3583900146	       48.2558538359	        2.9353483039	       -9.3725609652	
        1.0600000000	        0.0000000000	        0.0000000000	        0.0000000000	        0.1988394961	        0.0000558755	       -0.3004071324	       -0.0000000000	       -0.0000000000	        0.0000000000	        2.8040844351	      516.3401029661	      162.2757448391	        0.2029003516	       -0.0000795827	        0.4543649445	      -88.9626718893	      -22.6595528472	       61.8017613591	      -51.4990787104	      722.8623698670	     -145.9219815964	        0.2076431971	        0.0000770316	        1.3583900146	       47.6386720613	        2.5065863935	       -9.5876835067	
        1.0610000000	        0.0000000000	        0.0000000000	        0.0000000000	        0.1988394961	        0.0000558755	       -0.3004071324	       -0.0000000000	       -0.0000000000	        0.0000000000	        2.8478438280	      501.7033317259	      159.3953632206	        0.2029003516	       -0.0000795827	        0.4543649445	      -86.7488204373	      -22.1418686263	       60.0502753209	      -49.8885079666	      726.6335200935	     -154.6256594806	        0.2076431971	        0.0000770316	        1.3583900146	       47.0270578201	        2.1079600686	       -9.8129661005	
        1.0620000000	        0.0000000000	        0.0000000000	        0.0000000000	        0.1988394961	        0.0000558755	       -0.3004071324	       -0.0000000000	       -0.0000000000	        0.0000000000	        2.8432968732	      486.8715006227	      156.2253475146	        0.2029003516	       -0.0000795827	        0.4543649445	      -84.5050124269	      -21.5958228154	       58.2788627357	      -48.4599948425	      730.4890682133	     -161.6440950389	        0.2076431971	        0.0000770316	        1.3583900146	       46.4419775761	        1.7436167151	      -10.0487116121	
        1.0630000000	        0.0000000000	        0.0000000000	        0.0000000000	        0.1988394961	        0.0000558755	       -0.3004071324	       -0.0000000000	       -0.0000000000	        0.0000000000	        2.7946118803	      471.8951609513	      152.7521657339	        0.2029003516	       -0.0000795827	        0.4543649445	      -82.2400516710	      -21.0197382943	       56.4942725727	      -47.2315997573	      734.5266561704	     -166.9793400198	        0.2076431971	        0.0000770316	        1.3583900146	       45.8963051882	        1.4140338383	      -10.2949521709	
        1.0640000000	        0.0000000000	        0.0000000000	        0.0000000000	        0.1988394961	        0.0000558755	       -0.3004071324	       -0.0000000000	       -0.0000000000	        0.0000000000	        2.7076321232	      456.8294356919	      148.9667999827	        0.2029003516	       -0.0000795827	        0.4543649445	      -79.9633421582	      -20.4124447486	       54.7033176968	      -46.1918493798	      738.7759282084	     -170.7083400798	        0.2076431971	        0.0000770316	        1.3583900146	       45.3965669710	        1.1166111575	      -10.5518336935	
